<svg width="70" height="70" viewBox="0 0 70 70" fill="none" xmlns="http://www.w3.org/2000/svg">
<path d="M34.7517 55.3576H34.438C34.3702 55.3231 34.3002 55.2931 34.2286 55.2677C29.8826 54.0451 25.5406 52.8057 21.1847 51.6186C20.466 51.4211 20.1287 51.19 20.0923 50.3574C20.0068 48.3922 19.7718 46.4338 19.6007 44.4724C19.4585 42.8633 19.3169 41.2549 19.1759 39.6471C19.0042 37.6983 18.8318 35.7501 18.6587 33.8026C18.5172 32.1941 18.3762 30.5857 18.2359 28.9773C18.0642 27.0291 17.8912 25.0809 17.7168 23.1327C17.5424 21.1846 17.369 19.2361 17.1967 17.2872C17.1298 16.5327 17.0688 15.7782 17 15H52.1808C52.171 15.1728 52.1671 15.3269 52.1533 15.48C52.0068 17.1144 51.8583 18.7479 51.7118 20.3823C51.5427 22.3052 51.3805 24.228 51.2104 26.1498C51.0403 28.0716 50.8613 29.9935 50.6922 31.9153C50.5231 33.8372 50.3638 35.761 50.1937 37.6828C49.997 39.9059 49.7896 42.1269 49.5939 44.351C49.3982 46.575 49.2085 48.7714 49.0246 50.9816C49.003 51.2423 48.9007 51.3559 48.6411 51.427C45.0824 52.4146 41.5266 53.4107 37.9738 54.4154C36.8981 54.7196 35.8264 55.0435 34.7517 55.3576ZM24.8828 37.9702C24.8711 38.0269 24.8635 38.0843 24.8601 38.142C25.0637 40.3908 25.2652 42.6405 25.4865 44.8872C25.4973 44.9988 25.6723 45.1489 25.7982 45.1835C28.6365 45.9841 31.4778 46.7742 34.322 47.5537C34.4824 47.5988 34.6515 47.6022 34.8136 47.5636C37.6837 46.7735 40.5499 45.9834 43.4191 45.1934C43.6255 45.1371 43.714 45.0561 43.7308 44.829C43.8782 43.0513 44.0395 41.2737 44.2007 39.496C44.4269 36.9994 44.6547 34.5025 44.8841 32.0052C45.1188 29.3901 45.3508 26.7746 45.5802 24.1588C45.6304 23.589 45.6687 23.0182 45.713 22.4385H23.4718L23.7569 26.6051H40.9491C40.8459 27.9482 40.7358 29.2558 40.6482 30.5653C40.6099 31.143 40.7053 31.1144 40.0829 31.1213C34.9405 31.1819 29.7977 31.2405 24.6546 31.2971C24.515 31.2971 24.3754 31.2971 24.1974 31.2971C24.3479 32.733 24.4924 34.1097 24.6389 35.5042H40.2127C40.2225 35.5363 40.2284 35.5695 40.2304 35.603C40.0229 37.5208 39.8076 39.4377 39.6119 41.3576C39.5834 41.643 39.431 41.7191 39.1989 41.7813C37.7614 42.1645 36.3278 42.5615 34.8883 42.9368C34.6882 42.9871 34.4788 42.9871 34.2787 42.9368C32.8904 42.5723 31.5119 42.1694 30.1196 41.8228C29.7263 41.724 29.5955 41.563 29.5729 41.1739C29.5168 40.2051 29.4244 39.2373 29.3241 38.2704C29.3133 38.1648 29.157 37.989 29.0655 37.988C27.6781 37.9653 26.2927 37.9702 24.8828 37.9702Z" fill="#E8E8E8"/>
</svg>
