<svg width="70" height="70" viewBox="0 0 70 70" fill="none" xmlns="http://www.w3.org/2000/svg">
<path d="M34.8639 54.2399H34.5577C34.4498 54.1819 34.3386 54.1303 34.2247 54.0852C29.5673 52.5472 24.9099 51.0093 20.2525 49.4714C19.9721 49.3752 19.8371 49.2551 19.8228 48.9475C19.7835 48.1055 19.7146 47.2634 19.6563 46.4224C19.521 44.4711 19.3851 42.5199 19.2486 40.5686C19.1079 38.5798 18.9615 36.5911 18.8179 34.6014C18.6792 32.6376 18.5481 30.6729 18.4093 28.7091C18.2677 26.7226 18.1235 24.7339 17.9767 22.7429C17.8306 20.7026 17.6855 18.6622 17.5413 16.6219C17.5021 16.0682 17.4714 15.5136 17.437 14.9667H52C51.9579 15.6222 51.9215 16.248 51.8765 16.8718C51.7359 18.8481 51.5894 20.8243 51.4488 22.8006C51.3081 24.7768 51.1789 26.755 51.0382 28.7313C50.8727 31.0641 50.6975 33.397 50.532 35.7308C50.3922 37.7071 50.263 39.6843 50.1243 41.6615C49.9549 44.0838 49.773 46.506 49.6161 48.9302C49.597 49.2378 49.4955 49.3704 49.2103 49.4637C45.3951 50.7139 41.5824 51.9715 37.7723 53.2364C36.799 53.5671 35.8334 53.9074 34.8639 54.2399ZM25.0222 40.4417C25.0222 40.5715 25.0155 40.683 25.0222 40.7935C25.1179 42.1075 25.2193 43.4196 25.292 44.7345C25.3073 45.0017 25.3973 45.1055 25.6356 45.1843C28.3851 46.0985 31.1364 47.0106 33.8744 47.9536C34.4171 48.1559 35.0141 48.1559 35.5568 47.9536C38.2948 47.0058 41.0462 46.0994 43.787 45.1767C43.9487 45.1228 44.1086 45.1026 44.1258 44.8479C44.2359 43.1389 44.3689 41.4308 44.4914 39.7227C44.6375 37.6958 44.7823 35.6687 44.9258 33.6411C44.9823 32.8424 45.033 32.0436 45.0895 31.2054H28.9334C28.7947 29.2272 28.6578 27.2837 28.519 25.3026H45.5077C45.6168 23.7579 45.724 22.2469 45.8312 20.7167H23.6048C23.957 25.7611 24.3082 30.7786 24.6575 35.8317H40.1772C40.1351 36.4709 40.0968 37.0698 40.0557 37.6686C39.9724 38.8932 39.8824 40.1168 39.8068 41.3424C39.7906 41.6077 39.6853 41.7269 39.424 41.8134C37.9493 42.2882 36.4822 42.79 35.0094 43.2706C34.8449 43.3294 34.6668 43.3381 34.4974 43.2956C32.9611 42.7983 31.4299 42.2879 29.9038 41.7643C29.844 41.7329 29.7918 41.6886 29.7509 41.6346C29.7101 41.5807 29.6816 41.5183 29.6674 41.4519C29.6081 41.1184 29.5938 40.7791 29.5612 40.4388L25.0222 40.4417Z" fill="#E8E8E8"/>
</svg>
