<svg width="70" height="70" viewBox="0 0 70 70" fill="none" xmlns="http://www.w3.org/2000/svg">
<path d="M17.0043 32.0973C17.0635 31.87 17.1199 31.6427 17.1813 31.4168C17.4872 30.2744 18.1606 29.2657 19.0967 28.5478C20.0328 27.8298 21.179 27.443 22.3568 27.4475C26.5924 27.4475 30.8301 27.4475 35.07 27.4475C35.6604 27.4475 36.0694 27.1994 36.2365 26.7463C36.507 26.0178 35.9823 25.3051 35.1571 25.3008C33.6494 25.2929 32.1418 25.3008 30.6341 25.3008H27.4759C27.4495 25.2714 27.4203 25.2542 27.4203 25.237C27.4538 23.8582 27.2511 22.4672 27.558 21.1034C28.0884 18.7445 30.2614 17.0115 32.6607 17.0043C34.3816 16.9986 36.103 16.9986 37.8248 17.0043C40.6724 17.0136 43.0703 19.4113 43.0774 22.2671C43.086 25.6538 43.086 29.04 43.0774 32.4257C43.0774 33.4818 42.3114 34.2447 41.2549 34.2454C37.2782 34.2454 33.3015 34.2454 29.3248 34.2454C27.3624 34.2454 25.8269 35.4414 25.3815 37.3113C25.3055 37.6601 25.2686 38.0163 25.2715 38.3732C25.2594 39.8395 25.2665 41.3058 25.2665 42.7728V43.2539C23.8709 43.1865 22.4896 43.2603 21.164 43.0244C19.0024 42.6401 17.4519 40.887 17.0714 38.6966C17.0538 38.6416 17.0298 38.5889 17 38.5396L17.0043 32.0973ZM33.8179 21.3651C33.8289 21.2177 33.8096 21.0696 33.7611 20.93C33.7125 20.7904 33.6359 20.6624 33.5359 20.5539C33.4359 20.4454 33.3147 20.3588 33.1799 20.2994C33.045 20.2401 32.8995 20.2093 32.7523 20.209C32.6051 20.2087 32.4594 20.2389 32.3243 20.2977C32.1893 20.3565 32.0677 20.4426 31.9673 20.5507C31.8668 20.6588 31.7897 20.7865 31.7406 20.9259C31.6915 21.0653 31.6716 21.2134 31.682 21.3608C31.7012 21.6318 31.8218 21.8854 32.0195 22.0708C32.2173 22.2562 32.4775 22.3595 32.748 22.36C33.0184 22.3606 33.2791 22.2583 33.4776 22.0737C33.676 21.8892 33.7976 21.636 33.8179 21.3651Z" fill="#E8E8E8"/>
<path d="M32.0397 53.6369C31.5478 53.4799 31.0289 53.3795 30.5677 53.1572C28.5339 52.1749 27.4389 50.538 27.4181 48.2608C27.3875 44.9346 27.4096 41.6084 27.4103 38.2815C27.4103 37.13 28.1513 36.3929 29.307 36.3922C33.2594 36.3922 37.2123 36.3922 41.1657 36.3922C43.1296 36.3922 44.6637 35.1991 45.1062 33.3234C45.1835 32.9628 45.2206 32.5946 45.2169 32.2257C45.229 30.6755 45.2233 29.1261 45.224 27.5759C45.2258 27.5518 45.2294 27.5278 45.2347 27.5042C45.2519 27.4884 45.2697 27.459 45.2868 27.4597C46.6475 27.4934 48.0202 27.2905 49.3673 27.5924C51.7609 28.1294 53.477 30.3012 53.4827 32.7606C53.487 34.4656 53.487 36.1706 53.4827 37.8757C53.4749 40.781 51.0934 43.1815 48.2044 43.1858C43.9548 43.1923 39.7052 43.1858 35.4555 43.1944C35.1969 43.1935 34.9412 43.2498 34.7067 43.3594C34.2998 43.5615 34.1049 44.0649 34.207 44.4822C34.3326 44.9798 34.7067 45.3039 35.2221 45.3326C35.4941 45.3483 35.7682 45.3369 36.0409 45.3369H43.0096C43.036 45.3648 43.0667 45.3827 43.066 45.3992C43.0275 46.7544 43.1374 48.1353 42.9111 49.4575C42.5385 51.63 40.7817 53.1859 38.6044 53.5674C38.5501 53.5849 38.498 53.609 38.4495 53.6391L32.0397 53.6369ZM37.7263 50.3444C38.2889 50.3537 38.7971 49.8547 38.8071 49.2847C38.8171 48.7147 38.3217 48.2085 37.7506 48.2013C37.1795 48.1941 36.6798 48.691 36.6705 49.261C36.6612 49.831 37.1567 50.3351 37.7242 50.3444H37.7263Z" fill="#E8E8E8"/>
</svg>
