<svg width="70" height="70" viewBox="0 0 70 70" fill="none" xmlns="http://www.w3.org/2000/svg">
<path d="M34.1596 53.918C33.3588 53.7963 32.5549 53.6899 31.7571 53.5466C31.2432 53.4557 30.7369 53.3109 30.1785 53.1768C32.0195 47.8144 33.8405 42.4875 35.7015 37.0573L41.4623 52.9041C40.7642 53.0936 40.0662 53.3263 39.3497 53.4665C38.4737 53.6375 37.5823 53.7331 36.6971 53.8625C36.6158 53.8748 36.536 53.8995 36.4547 53.918H34.1596Z" fill="#E8E8E8"/>
<path d="M17 34.2342C17.0736 33.6903 17.1366 33.1448 17.2209 32.6008C17.472 30.9931 17.9363 29.4264 18.6017 27.9426L27.3464 51.9918L27.2789 52.0657C26.5579 51.6343 25.8123 51.2398 25.1203 50.7636C21.5243 48.2874 19.0451 44.9621 17.7993 40.7631C17.4465 39.5766 17.3176 38.3253 17.0859 37.1034C17.0598 36.9647 17.0353 36.8245 17.0092 36.6858L17 34.2342Z" fill="#E8E8E8"/>
<path d="M44.5321 46.594L37.9076 26.8101C38.4768 26.7624 39.0168 26.7192 39.5569 26.6684C39.7595 26.6554 39.9607 26.6249 40.1582 26.5774C40.327 26.5314 40.4737 26.4258 40.5714 26.2801C40.6691 26.1344 40.7114 25.9583 40.6906 25.7839C40.6822 25.6069 40.6047 25.4403 40.4749 25.3203C40.3451 25.2003 40.1734 25.1366 39.9971 25.1428C39.4111 25.1428 38.825 25.1767 38.2421 25.2245C35.5849 25.4464 32.9338 25.3108 30.2828 25.1367C29.6246 25.092 29.2442 25.525 29.4053 26.1044C29.4307 26.2355 29.4978 26.3548 29.5966 26.4443C29.6954 26.5338 29.8205 26.5887 29.953 26.6006C30.5221 26.6637 31.0928 26.7238 31.6651 26.767C31.7636 26.7653 31.8597 26.7978 31.9371 26.859C32.0145 26.9202 32.0685 27.0063 32.09 27.1029C32.9615 29.5252 33.8498 31.9429 34.7196 34.3652C34.7868 34.5519 34.7948 34.7548 34.7426 34.9462C33.4723 38.8139 32.1939 42.679 30.9072 46.5416C30.8888 46.5986 30.8597 46.651 30.8014 46.782C28.5645 40.1021 26.3523 33.4838 24.1139 26.8101C24.6785 26.7624 25.2185 26.7177 25.7585 26.6684C25.9495 26.6564 26.1393 26.6296 26.3262 26.5882C26.5024 26.5478 26.6577 26.4439 26.7629 26.2963C26.868 26.1487 26.9157 25.9675 26.8969 25.787C26.8927 25.6962 26.8703 25.6071 26.8312 25.5252C26.7921 25.4432 26.737 25.3699 26.6692 25.3097C26.6014 25.2495 26.5222 25.2036 26.4364 25.1747C26.3507 25.1458 26.26 25.1344 26.1697 25.1413C25.4763 25.1552 24.789 25.2168 24.0925 25.2415C22.8651 25.2831 21.6531 25.3123 20.4335 25.3432C20.3199 25.3432 20.2049 25.3293 20.0683 25.3201C26.1421 15.7663 39.7317 14.2547 47.6327 21.7497C47.1724 21.89 46.6386 21.967 46.1921 22.212C44.7976 22.9532 44.2084 24.4818 44.6073 26.126C44.8359 27.0613 45.3637 27.8518 45.807 28.687C46.3455 29.6993 46.9331 30.7009 47.332 31.7688C48.0208 33.6179 47.9273 35.5271 47.378 37.3962C46.4882 40.4288 45.537 43.4443 44.6165 46.4676C44.5925 46.5124 44.5642 46.5547 44.5321 46.594Z" fill="#E8E8E8"/>
<path d="M44.6411 51.3276C45.1074 49.9716 45.5738 48.6155 46.0402 47.2595C47.6373 42.6368 49.2466 38.014 50.8268 33.3789C51.4487 31.5205 51.7091 29.5592 51.5939 27.602C51.5801 27.3385 51.5417 27.0781 51.5126 26.7915C52.8565 28.0242 54.0624 34.0739 53.6604 37.3745C52.9148 43.4951 49.8618 48.1147 44.7178 51.383L44.6411 51.3276Z" fill="#E8E8E8"/>
</svg>
